<?xml version="1.0" encoding="utf-8"?>
<!-- Generator: Adobe Illustrator 21.0.0, SVG Export Plug-In . SVG Version: 6.00 Build 0)  -->
<svg version="1.1" xmlns="http://www.w3.org/2000/svg" xmlns:xlink="http://www.w3.org/1999/xlink" x="0px" y="0px"
	 viewBox="0 0 469.4 118" style="enable-background:new 0 0 469.4 118;" xml:space="preserve">
<style type="text/css">
	.st0{fill-rule:evenodd;clip-rule:evenodd;fill:#FFFFFF;}
	.st1{fill:#FFFFFF;}
</style>
<g id="shapes_1_">
	<g id="Shape_2">
		<g>
			<path class="st0" d="M93.6,85.9L87,86.8c0,0-2.7,1.9-5.8,6.7c0,0,6.2-0.4,9.2-1.8c0,0,1.9-2.5,4.5-5.9L93.6,85.9z M93.5,85
				l1.4-0.2c-3.4-2.6-5.8-4.6-5.8-4.6c-3.2-0.6-9.4,0.6-9.4,0.6c4.2,3.8,7.3,5,7.3,5L93.5,85z M82.8,87.3l-6.6,0.8
				c0,0-2.7,1.9-5.8,6.7c0,0,6.2-0.4,9.2-1.8c0,0,1.9-2.5,4.5-5.9L82.8,87.3z M82.7,86.3l1.4-0.2c-3.4-2.6-5.8-4.6-5.8-4.6
				c-3.2-0.6-9.4,0.6-9.4,0.6c4.2,3.8,7.3,5,7.3,5L82.7,86.3z M72.2,88.6l-6.6,0.8c0,0-2.7,1.9-5.8,6.7c0,0,6.2-0.4,9.2-1.8
				c0,0,1.9-2.5,4.5-5.9L72.2,88.6z M72.1,87.6l1.4-0.2c-3.4-2.6-5.8-4.6-5.8-4.6c-3.2-0.6-9.4,0.6-9.4,0.6c4.2,3.8,7.3,5,7.3,5
				L72.1,87.6z M61.6,89.9l-6.6,0.8c0,0-2.7,1.9-5.8,6.7c0,0,6.2-0.4,9.2-1.8c0,0,1.9-2.5,4.5-5.9L61.6,89.9z M61.5,88.9l1.4-0.2
				c-3.4-2.6-5.8-4.6-5.8-4.6c-3.2-0.6-9.4,0.6-9.4,0.6c4.2,3.8,7.3,5,7.3,5L61.5,88.9z M51.2,91.2L44.7,92c0,0-2.7,1.9-5.8,6.7
				c0,0,6.2-0.4,9.2-1.8c0,0,1.9-2.5,4.5-5.9L51.2,91.2z M51.1,90.2l1.4-0.2c-3.4-2.6-5.8-4.6-5.8-4.6c-3.2-0.6-9.4,0.6-9.4,0.6
				c4.2,3.8,7.3,5,7.3,5L51.1,90.2z M40.4,92.6l-6.6,0.8c0,0-2.7,1.9-5.8,6.7c0,0,6.2-0.4,9.2-1.8c0,0,1.9-2.5,4.5-5.9L40.4,92.6z
				 M40.3,91.6l1.4-0.2c-3.4-2.6-5.8-4.6-5.8-4.6c-3.2-0.6-9.4,0.6-9.4,0.6c4.2,3.8,7.3,5,7.3,5L40.3,91.6z M29.9,93.9l-6.6,0.8
				c0,0-2.7,1.9-5.8,6.7c0,0,6.2-0.4,9.2-1.8c0,0,1.9-2.5,4.5-5.9L29.9,93.9z M29.7,92.9l1.4-0.2c-3.4-2.6-5.8-4.6-5.8-4.6
				c-3.2-0.6-9.4,0.6-9.4,0.6c4.2,3.8,7.3,5,7.3,5L29.7,92.9z M19.3,95.2L12.7,96c0,0-2.7,1.9-5.8,6.7c0,0,6.2-0.4,9.2-1.8
				c0,0,1.9-2.5,4.5-5.9L19.3,95.2z M19.2,94.2l1.4-0.2c-3.4-2.6-5.8-4.6-5.8-4.6C11.5,88.9,5.3,90,5.3,90c4.2,3.8,7.3,5,7.3,5
				L19.2,94.2z"/>
		</g>
	</g>
	<g id="Shape_3">
		<g>
			<path class="st0" d="M380.9,50.3c0,0,2.7-1.9,5.8-6.7c0,0-6.2,0.4-9.2,1.8c0,0-1.9,2.5-4.5,5.9l1.4-0.2L380.9,50.3z M374.5,52.1
				l-1.4,0.2c3.4,2.6,5.8,4.6,5.8,4.6c3.2,0.6,9.4-0.6,9.4-0.6c-4.2-3.8-7.3-5-7.3-5L374.5,52.1z M385.2,49.8l6.6-0.8
				c0,0,2.7-1.9,5.8-6.7c0,0-6.2,0.4-9.2,1.8c0,0-1.9,2.5-4.5,5.9L385.2,49.8z M385.3,50.8l-1.4,0.2c3.4,2.6,5.8,4.6,5.8,4.6
				c3.2,0.6,9.4-0.6,9.4-0.6c-4.2-3.8-7.3-5-7.3-5L385.3,50.8z M395.7,48.5l6.6-0.8c0,0,2.7-1.9,5.8-6.7c0,0-6.2,0.4-9.2,1.8
				c0,0-1.9,2.5-4.5,5.9L395.7,48.5z M395.8,49.5l-1.4,0.2c3.4,2.6,5.8,4.6,5.8,4.6c3.2,0.6,9.4-0.6,9.4-0.6c-4.2-3.8-7.3-5-7.3-5
				L395.8,49.5z M406.3,47.2l6.6-0.8c0,0,2.7-1.9,5.8-6.7c0,0-6.2,0.4-9.2,1.8c0,0-1.9,2.5-4.5,5.9L406.3,47.2z M406.4,48.2
				l-1.4,0.2c3.4,2.6,5.8,4.6,5.8,4.6c3.2,0.6,9.4-0.6,9.4-0.6c-4.2-3.8-7.3-5-7.3-5L406.4,48.2z M416.7,45.9l6.6-0.8
				c0,0,2.7-1.9,5.8-6.7c0,0-6.2,0.4-9.2,1.8c0,0-1.9,2.5-4.5,5.9L416.7,45.9z M416.8,46.9l-1.4,0.2c3.4,2.6,5.8,4.6,5.8,4.6
				c3.2,0.6,9.4-0.6,9.4-0.6c-4.2-3.8-7.3-5-7.3-5L416.8,46.9z M427.5,44.5l6.6-0.8c0,0,2.7-1.9,5.8-6.7c0,0-6.2,0.4-9.2,1.8
				c0,0-1.9,2.5-4.5,5.9L427.5,44.5z M427.6,45.5l-1.4,0.2c3.4,2.6,5.8,4.6,5.8,4.6c3.2,0.6,9.4-0.6,9.4-0.6c-4.2-3.8-7.3-5-7.3-5
				L427.6,45.5z M438.1,43.2l6.6-0.8c0,0,2.7-1.9,5.8-6.7c0,0-6.2,0.4-9.2,1.8c0,0-1.9,2.5-4.5,5.9L438.1,43.2z M438.2,44.2
				l-1.4,0.2c3.4,2.6,5.8,4.6,5.8,4.6c3.2,0.6,9.4-0.6,9.4-0.6c-4.2-3.8-7.3-5-7.3-5L438.2,44.2z M448.6,41.9l6.6-0.8
				c0,0,2.7-1.9,5.8-6.7c0,0-6.2,0.4-9.2,1.8c0,0-1.9,2.5-4.5,5.9L448.6,41.9z M455.3,42.1l-6.6,0.8l-1.4,0.2
				c3.4,2.6,5.8,4.6,5.8,4.6c3.2,0.6,9.4-0.6,9.4-0.6C458.4,43.3,455.3,42.1,455.3,42.1z"/>
		</g>
	</g>
	<g id="Shape_1">
		<g>
			<path class="st0" d="M463.8,56.2L2.3,111.7c-0.4,0.1-0.7,0.4-0.7,0.9c0,0.4,0.4,0.7,0.8,0.7c0,0,0.1,0,0.1,0L464,57.7
				c0.4-0.1,0.7-0.4,0.7-0.9C464.7,56.4,464.3,56.1,463.8,56.2z"/>
		</g>
	</g>
</g>
<g id="typography_1_">
	<g id="wwsgo">
		<path class="st1" d="M128.6,40.7l4.9-0.6l11-1.3c0.1,0,0.1,0,0.2,0l1,6.5c0.3,1.9,0.7,4.8,1.3,8.6c0.6,3.8,1,6.2,1.1,7.2l0.2,1.5
			l1.1-0.1c0.5-5.5,1.4-12.8,2.8-21.9l0.1-0.7c0-0.2,0-0.4,0-0.6c0-0.5,0.1-0.8,0.3-1.2c0.2-0.3,0.7-0.5,1.5-0.6
			c6.1-0.7,10.5-1.1,13.3-1.1c0.1,0.1,0.2,0.3,0.2,0.6c-0.5,2.2-1.2,5.6-2.2,10.2c-1,4.6-1.8,8.1-2.3,10.5l-0.2,1.1
			c0,0.1-0.2,0.5-0.4,1.1s-0.3,1-0.3,1.2l-2,9.2l-0.9,4.6c-0.5,2.6-0.9,4.4-1.1,5.5l-0.1,0c-1.3,0.2-3.3,0.5-6,0.8l-4.4,0.5
			l-1.5,0.2c-2.1,0.3-4.1,0.5-5.9,0.8c-0.2,0-0.4-1.4-0.8-4.4c-0.4-2.9-0.6-4.5-0.6-4.7l-0.3-1.4c-0.6-3.9-1.2-8-1.8-12.4l-1.1,0.1
			c-1.1,5.7-2,12.6-2.9,20.6c-0.2,2.1-0.6,3.2-1.2,3.4c-2.7,0.2-5.3,0.5-7.9,0.8c-2.5,0.3-5.8,0.8-9.8,1.4c-0.5-0.4-1-1.5-1.2-3.3
			l-0.2-1.1c-0.7-3.7-2.2-10.6-4.5-20.6l-0.6-2.7c-0.2-1.1-0.7-3.2-1.4-6.3c-0.7-3.2-1.3-6-1.8-8.4c0-0.2,0.2-0.3,0.4-0.4
			c0.4,0,0.9,0,1.4-0.1l0.3,0l2.7-0.4l3.9-0.6c1.3-0.2,2.3-0.2,3-0.3l1.8-0.2c0.2,0,0.5,0,0.9-0.1l0.4,0c0.6-0.1,1.5,4.6,2.6,13.9
			c0.5,4.2,0.8,6.7,0.9,7.4l0.2,1.6l1.1-0.1c0.7-4.5,1.5-9.7,2.3-15.7c0-0.7,0.2-2.1,0.5-4.1c0.3-2.1,0.6-3.3,0.9-3.9
			C127.8,40.8,128.1,40.8,128.6,40.7z"/>
		<path class="st1" d="M189.1,33.5l4.9-0.6l11-1.3c0.1,0,0.1,0,0.2,0l1,6.5c0.3,1.9,0.7,4.8,1.3,8.6c0.6,3.8,1,6.2,1.1,7.2l0.2,1.5
			l1.1-0.1c0.5-5.5,1.4-12.8,2.8-21.9l0.1-0.7c0-0.2,0-0.4,0-0.6c0-0.5,0.1-0.8,0.3-1.2c0.2-0.3,0.7-0.5,1.5-0.6
			c6.1-0.7,10.5-1.1,13.3-1.1c0.1,0.1,0.2,0.3,0.2,0.6C227.8,32,227,35.4,226,40s-1.8,8.1-2.3,10.5l-0.2,1.1c0,0.1-0.2,0.5-0.4,1.1
			c-0.2,0.6-0.3,1-0.3,1.2l-2,9.2l-0.9,4.6c-0.5,2.6-0.9,4.4-1.1,5.5l-0.1,0c-1.3,0.2-3.3,0.5-6,0.8l-4.4,0.5l-1.5,0.2
			c-2.1,0.3-4.1,0.5-5.8,0.8c-0.2,0-0.4-1.4-0.8-4.4c-0.4-2.9-0.6-4.5-0.6-4.7l-0.3-1.4c-0.6-3.9-1.2-8-1.8-12.4l-1.1,0.1
			c-1.1,5.7-2,12.6-2.9,20.6c-0.2,2.1-0.6,3.2-1.2,3.4c-2.7,0.2-5.3,0.5-7.9,0.8c-2.5,0.3-5.8,0.8-9.8,1.4c-0.5-0.4-1-1.5-1.2-3.3
			l-0.2-1.1c-0.7-3.7-2.2-10.6-4.5-20.6l-0.6-2.7c-0.2-1.1-0.7-3.2-1.4-6.3c-0.7-3.2-1.3-6-1.8-8.4c0-0.2,0.2-0.3,0.4-0.4
			c0.4,0,0.9,0,1.4-0.1l0.3,0l2.7-0.4l3.9-0.6c1.3-0.2,2.3-0.2,3-0.3l1.8-0.2c0.2,0,0.5,0,0.9-0.1l0.4,0c0.6-0.1,1.5,4.6,2.6,13.9
			c0.5,4.2,0.8,6.7,0.9,7.4l0.2,1.6l1.1-0.1c0.7-4.5,1.5-9.7,2.3-15.7c0-0.7,0.2-2.1,0.5-4.1c0.3-2.1,0.6-3.3,0.9-3.9
			C188.3,33.6,188.6,33.6,189.1,33.5z"/>
		<path class="st1" d="M229.2,59.9l15-2.1c0.4,0,0.7,0.2,1,0.9c0.3,0.6,0.5,1.1,0.8,1.4c0.6,0.8,1.6,1.2,2.9,1
			c1.4-0.2,2.4-0.6,3.3-1.3c0.8-0.7,1.2-1.6,1.2-2.6c0-1-0.3-1.7-0.8-2s-1.1-0.6-1.7-0.9c-0.6-0.3-1.5-0.4-2.7-0.5
			c-1.2,0-1.8-0.1-1.9-0.1l0.1,0l-1.6-0.2c-1-0.1-1.9-0.2-2.6-0.3c-4.5-0.7-7.8-1.8-9.8-3.4c-2-1.6-3-3.9-3-7.1
			c0-2.3,0.4-4.3,1.2-6.2c0.8-1.9,1.9-3.5,3.3-4.8c3.9-3.7,9.2-6,16.1-6.8c5.4-0.6,9.7-0.2,12.8,1.4l0,0c2,1.2,3.4,2.5,4.1,3.8
			c0.7,1.3,1.2,3,1.4,5l-0.7,0.8c-5,0.8-9.4,1.4-13.2,1.9c-1.2,0.1-1.8-0.1-2.1-0.8c-0.1-0.3-0.2-0.5-0.3-0.8
			c-0.3-0.7-1.1-0.9-2.6-0.7l-0.1,0c-1.1,0.1-2.1,0.5-2.9,1.1c-0.8,0.6-1.2,1.2-1.2,1.7c0,0.5,0.1,0.9,0.3,1.2
			c0.2,0.3,0.4,0.5,0.7,0.7c0.2,0.2,0.6,0.3,1.1,0.4c0.5,0.1,0.9,0.2,1.2,0.3c0.3,0,0.7,0.1,1.2,0.2l1,0.1c0.4,0.1,1.6,0.2,3.5,0.4
			c1.9,0.2,3.5,0.5,4.8,0.7v0c4,0.9,6.8,2.3,8.2,4.1c1.5,1.9,2.2,4.1,2.2,6.9c0,7.2-4.3,12.4-12.9,15.6c-2.5,0.9-5.2,1.7-8,2.3
			c-3.5,0.4-6.9,0.3-10.3-0.3c-3.4-0.6-5.7-2-6.8-4.2c-0.8-1-1.3-2-1.6-2.9c-0.3-0.9-0.5-2.2-0.7-3.9
			C229,59.9,229.1,59.9,229.2,59.9z"/>
		<path class="st1" d="M315.4,59.6c0,0,0,0.1,0,0.1l-0.1,0.2l0,0V60c0,0,0,0.1,0,0.1c-0.9,0.8-3.1,1.7-6.5,2.7s-5.8,1.5-7.1,1.7
			c-1.3,0.2-2,0.2-2.2,0.2L298,65c-1.5,0.3-2.4,0.4-2.6,0.5c-8,1-14-0.3-18.2-3.8c-4.2-3.5-6.2-8.9-6.2-16.3
			c0-7.4,2.2-13.2,6.7-17.5c4.5-4.3,10.5-7,18.2-7.9c1.4-0.2,3.1-0.2,5.2-0.2c2.1,0,3.9,0.2,5.4,0.5c1.9,0.5,3.5,1.5,4.9,2.8
			c1.4,1.3,2.2,2.8,2.7,4.6c0.1,0.5,0.2,1.2,0.3,2.3c0.1,1,0.2,1.8,0.3,2.3c-0.1,0.3-0.5,0.5-1.2,0.6L299,34.1
			c-0.1,0-0.2-0.3-0.3-0.7v0.1c-0.3-1.5-1-2.3-2-2.6c-0.5-0.1-1.1-0.1-1.8,0c-0.7,0.1-1.4,0.3-2.1,0.6c-0.7,0.3-1.2,0.7-1.6,1.2
			c-0.4,0.5-0.8,1-1.2,1.7c-0.3,0.6-0.6,1.3-0.8,2c-0.2,0.7-0.3,1.4-0.5,2.1c-0.1,0.7-0.2,1.4-0.2,2.1s-0.1,1.3-0.1,2
			c0,0.6,0,1.1,0,1.5c0,0.4,0,0.7,0,0.8v2c0,1.2,0.1,2.1,0.2,2.5c0.1,0.5,0.2,1,0.4,1.5c0.2,0.6,0.3,1,0.5,1.3
			c0.7,1,1.5,1.6,2.4,1.9s2.2,0.3,4,0.1c1.8-0.2,3.6-0.7,5.2-1.4l0.1-4.5l-2,0.1l-0.3,0.2l-3,0.4l-0.3,0.1l-0.7-0.7
			c0-0.3-0.1-0.8-0.1-1.5v-6.4c0-0.3,0.2-0.7,0.7-1l1.9-0.2c1.6-0.2,3.5-0.4,5.5-0.6l0.3,0c1.9-0.2,3.3-0.3,4.2-0.4l1.7-0.2l0.7-0.1
			c3.4-0.4,5.3-0.4,5.8,0l-0.3,21.6V59.6z"/>
		<path class="st1" d="M318.3,39.6l0.1-0.6c0.2-2.4,0.5-4.5,0.9-6.4c0.4-1.9,1-3.7,1.8-5.3c2-3.7,4.9-6.7,8.5-9
			c3.6-2.2,7.5-3.6,11.7-4.1c4.2-0.5,8-0.1,11.4,1.2c2,0.8,3.6,1.8,4.8,3.2c2.2,2.5,3.7,4.9,4.4,7.1c0.7,2.2,1.1,4.9,1.1,7.9
			c0,6.8-1.4,12.1-4.2,16l-1.3,1.9c-1.8,2.3-4.2,4.1-7.5,5.6c-3.2,1.5-6.4,2.4-9.6,2.9c-5.4,0.6-9.9,0-13.3-1.8
			C321.2,55,318.3,48.8,318.3,39.6z M334.6,37.4c0,0,0,0.1,0,0.1v0.1c-0.1,0.8-0.1,1.7-0.1,2.7s0.1,2,0.2,3.1
			c0.2,1.1,0.4,2.1,0.8,3.2c0.4,1.1,0.9,1.9,1.7,2.5c0.8,0.6,1.8,0.9,2.8,0.7c1-0.1,1.9-0.4,2.6-0.8c0.7-0.4,1.3-0.8,1.8-1.3
			c0.5-0.5,0.9-1.2,1.3-2c0.9-2.2,1.4-5.4,1.4-9.8c0-4.4-0.5-7.4-1.5-9.1c-1-1.6-2.5-2.4-4.6-2.1c-1,0.1-1.9,0.5-2.7,1.1
			c-0.8,0.6-1.3,1.2-1.7,1.7c-0.4,0.6-0.8,1.8-1.2,3.5c-0.4,1.8-0.6,3.4-0.6,4.8L334.6,37.4z"/>
	</g>
	<g id="THE">
		<path class="st1" d="M129,19.2v-7.7l-1.6,0.2l-3,3.6l-0.2-4.8l4.7-0.6l0,0v0l8.9-1.1l-0.2,4.9l-3-2.9l-1.5,0.2v7.7l2.8,1.7
			l-9.6,1.1L129,19.2z"/>
		<path class="st1" d="M140.7,17.8v-7.3l-2.2-1.7l6.3-0.7v4.3l4.3-0.5V7.5l6.1-0.7L153.1,9v7.3l2.2,1.7l-6.3,0.7v-5.3l-4.3,0.5v5.3
			l-6.3,0.7L140.7,17.8z"/>
		<path class="st1" d="M158,15.7V8.5l-2.2-1.7L170,5l-0.2,3.9l-3.1-1.7l-4.6,0.6v2.6l4.7-0.6v1.7l-4.7,0.6v3.3l4.6-0.6l3.2-2.3v3.7
			L155.8,18L158,15.7z"/>
	</g>
</g>
</svg>
